<svg xmlns="http://www.w3.org/2000/svg" version="1.1" xmlns:xlink="http://www.w3.org/1999/xlink" xmlns:svgjs="http://svgjs.dev/svgjs" viewBox="0 0 4.177208601926677 6.375019911798636"><g transform="matrix(1,0,0,1,0.42811052654927595,2.4497093852493603)"><g><path d=" M 0.5745 0.6375000000000002 C 0.525 0.6405000000000003 0.5055000000000001 0.6555000000000002 0.459 0.6660000000000001 C 0.405 0.5220000000000002 0.0795 0.4890000000000002 0.075 0.43200000000000016 C 0.0675 0.3240000000000002 0.3045 0.08400000000000019 0.441 0.08400000000000019 C 0.453 0.08400000000000019 0.465 0.08550000000000024 0.47550000000000003 0.09000000000000019 C 0.5685 0.12750000000000017 0.495 0.24150000000000016 0.5640000000000001 0.24150000000000016 C 0.582 0.24150000000000016 0.603 0.2190000000000002 0.603 0.20400000000000018 C 0.603 0.09750000000000025 0.534 0.027000000000000246 0.45 0.0015000000000002789 C 0.4395 2.220446049250313e-16 0.429 2.220446049250313e-16 0.4185 2.220446049250313e-16 C 0.2205 2.220446049250313e-16 -0.018000000000000002 0.2565000000000002 -0.018000000000000002 0.39900000000000024 C -0.018000000000000002 0.5730000000000002 0.2175 0.5760000000000003 0.333 0.6510000000000002 C 0.342 0.6570000000000003 0.36 0.6780000000000002 0.363 0.6915000000000002 C 0.258 0.7275000000000003 0.084 0.8280000000000003 0.027 0.9255000000000002 C 0.027 0.9360000000000002 0.075 1.0020000000000002 0.0825 1.0140000000000002 C 0.0915 1.0290000000000001 0.1155 1.0350000000000001 0.132 1.0350000000000001 C 0.28200000000000003 1.0350000000000001 0.47550000000000003 0.8310000000000002 0.46950000000000003 0.7260000000000002 C 0.492 0.7185000000000002 0.603 0.6900000000000002 0.609 0.6825000000000002 L 0.603 0.6810000000000003 L 0.6045 0.6765000000000002 C 0.6045 0.6735000000000002 0.591 0.6645000000000002 0.5865 0.6585000000000002 C 0.594 0.6570000000000003 0.6015 0.6570000000000003 0.606 0.6540000000000002 C 0.6 0.6480000000000002 0.5865 0.6480000000000002 0.5775 0.6465000000000003 M 0.1005 0.9360000000000002 C 0.1095 0.9045000000000002 0.3 0.7740000000000002 0.354 0.7620000000000002 C 0.354 0.7665000000000002 0.35100000000000003 0.7710000000000002 0.34950000000000003 0.7740000000000002 C 0.3225 0.8295000000000002 0.20400000000000001 0.9390000000000003 0.11850000000000001 0.9390000000000003 C 0.114 0.9390000000000003 0.1065 0.9375000000000002 0.1005 0.9360000000000002 M 0.8834787597656251 0.4830000000000002 C 0.8699787597656251 0.48450000000000026 0.8609787597656251 0.49650000000000016 0.8564787597656252 0.5025000000000002 C 0.8279787597656252 0.5415000000000002 0.8009787597656252 0.5925000000000002 0.7784787597656251 0.6375000000000002 C 0.7304787597656252 0.7215000000000003 0.6674787597656251 0.8655000000000002 0.6449787597656251 0.8940000000000002 C 0.6449787597656251 0.8130000000000002 0.6629787597656251 0.7305000000000001 0.6839787597656252 0.6540000000000002 C 0.7169787597656252 0.5670000000000002 0.7289787597656251 0.5010000000000002 0.7259787597656251 0.46950000000000025 C 0.7229787597656251 0.4275000000000002 0.6959787597656251 0.42300000000000026 0.6614787597656251 0.42300000000000026 C 0.6509787597656251 0.42300000000000026 0.6419787597656251 0.42300000000000026 0.6359787597656251 0.4245000000000002 C 0.6344787597656252 0.4245000000000002 0.6314787597656252 0.42600000000000027 0.6314787597656252 0.42900000000000027 C 0.6314787597656252 0.4305000000000002 0.6314787597656252 0.4305000000000002 0.6344787597656252 0.4305000000000002 C 0.6359787597656251 0.4680000000000002 0.5894787597656251 0.6030000000000002 0.5744787597656251 0.6720000000000002 C 0.5639787597656252 0.7185000000000002 0.5459787597656252 0.7935000000000002 0.5474787597656251 0.8400000000000002 C 0.5519787597656252 0.8940000000000002 0.5984787597656251 0.9615000000000002 0.6584787597656251 0.9615000000000002 C 0.6779787597656252 0.9615000000000002 0.6944787597656251 0.9525000000000002 0.7079787597656251 0.9330000000000003 C 0.7724787597656251 0.8370000000000002 0.8189787597656251 0.7170000000000003 0.871478759765625 0.6120000000000002 C 0.8534787597656252 0.6990000000000003 0.8414787597656251 0.7935000000000002 0.8504787597656251 0.8880000000000002 C 0.8534787597656252 0.9210000000000003 0.8894787597656251 0.9780000000000002 0.9314787597656251 0.9780000000000002 C 0.9374787597656251 0.9780000000000002 0.9464787597656251 0.9780000000000002 0.9539787597656251 0.9780000000000002 C 1.016978759765625 0.9780000000000002 1.0934787597656253 0.7290000000000002 1.112978759765625 0.6750000000000003 C 1.1489787597656251 0.6795000000000002 1.1669787597656252 0.6810000000000003 1.180478759765625 0.6810000000000003 C 1.1954787597656251 0.6810000000000003 1.205978759765625 0.6795000000000002 1.229978759765625 0.6735000000000002 L 1.2329787597656252 0.6690000000000003 C 1.228478759765625 0.6690000000000003 1.2224787597656253 0.6645000000000002 1.223978759765625 0.6585000000000002 L 1.238978759765625 0.6600000000000001 L 1.2374787597656252 0.6555000000000002 L 1.250978759765625 0.6465000000000003 C 1.2494787597656252 0.6465000000000003 1.2614787597656252 0.6330000000000002 1.2599787597656251 0.6330000000000002 C 1.2569787597656252 0.6330000000000002 1.2554787597656252 0.6330000000000002 1.252478759765625 0.6330000000000002 C 1.205978759765625 0.6285000000000003 1.1669787597656252 0.6270000000000002 1.1249787597656251 0.6180000000000002 C 1.1309787597656251 0.6045000000000003 1.1309787597656251 0.5850000000000002 1.1294787597656253 0.5655000000000002 C 1.1294787597656253 0.5535000000000002 1.118978759765625 0.5370000000000001 1.1024787597656251 0.5370000000000001 C 1.099478759765625 0.5370000000000001 1.0964787597656251 0.5370000000000001 1.0934787597656253 0.5385000000000002 C 1.052978759765625 0.5520000000000003 1.042478759765625 0.6015000000000001 1.0454787597656252 0.6450000000000002 C 1.0454787597656252 0.6510000000000002 1.0499787597656252 0.6585000000000002 1.048478759765625 0.6660000000000001 C 1.0259787597656251 0.7530000000000002 0.9494787597656251 0.9165000000000002 0.9404787597656251 0.9180000000000003 C 0.9374787597656251 0.8745000000000003 0.9359787597656251 0.8160000000000003 0.9449787597656252 0.7410000000000002 C 0.9584787597656251 0.6195000000000002 0.9704787597656251 0.6015000000000001 0.9704787597656251 0.5295000000000002 C 0.9704787597656251 0.5205000000000002 0.9629787597656252 0.5100000000000002 0.9629787597656252 0.5025000000000002 C 0.9539787597656251 0.4860000000000002 0.9464787597656251 0.4770000000000002 0.9284787597656251 0.4770000000000002 C 0.9179787597656252 0.4770000000000002 0.8924787597656252 0.4770000000000002 0.8834787597656251 0.4830000000000002 M 1.4850234375 0.6645000000000002 L 1.4865234375 0.6645000000000002 C 1.4715234375000001 0.7185000000000002 1.4595234375000001 0.7770000000000002 1.4595234375000001 0.8340000000000002 C 1.4595234375000001 0.8835000000000002 1.4775234375 0.9375000000000002 1.5285234375 0.9570000000000002 C 1.5315234375 0.9600000000000002 1.5585234375 0.9660000000000002 1.5660234375000002 0.9660000000000002 C 1.6455234375 0.9660000000000002 1.7580234375 0.7860000000000003 1.8075234375 0.6960000000000002 L 1.8105234375 0.6675000000000002 C 1.8000234375000002 0.6645000000000002 1.8135234375 0.6495000000000002 1.8015234375 0.6510000000000002 C 1.8000234375000002 0.6495000000000002 1.8135234375 0.6180000000000002 1.8105234375 0.6135000000000002 C 1.7775234375000002 0.6600000000000001 1.6095234375 0.9120000000000003 1.5645234375000001 0.9120000000000003 C 1.5600234375 0.9120000000000003 1.5555234375 0.8790000000000002 1.5555234375 0.8730000000000002 C 1.5555234375 0.7725000000000002 1.5825234375 0.6825000000000002 1.6110234375 0.5865000000000002 C 1.6215234375 0.5490000000000002 1.6410234375 0.5100000000000002 1.6410234375 0.4710000000000002 C 1.6410234375 0.4395000000000002 1.5855234375 0.4305000000000002 1.5600234375 0.4305000000000002 C 1.5555234375 0.4305000000000002 1.5510234375 0.4335000000000002 1.5480234375 0.43800000000000017 L 1.5510234375 0.4440000000000002 C 1.5300234375000001 0.4710000000000002 1.5120234375 0.4980000000000002 1.4955234375000002 0.5205000000000002 C 1.4760234375 0.49350000000000027 1.4265234375 0.47850000000000026 1.3950234375 0.47850000000000026 C 1.2915234375 0.47850000000000026 1.1730234375 0.7125000000000002 1.1805234375 0.8085000000000002 C 1.1835234375 0.8610000000000002 1.2180234375 0.9240000000000003 1.2780234375 0.9240000000000003 C 1.3335234375 0.9240000000000003 1.4475234375000001 0.7230000000000002 1.4850234375 0.6645000000000002 M 1.2765234375 0.8490000000000002 L 1.2735234375 0.8385000000000002 C 1.2735234375 0.7560000000000002 1.3410234375 0.6210000000000002 1.4025234375 0.5640000000000003 C 1.4070234375 0.5580000000000003 1.4205234375 0.5490000000000002 1.4295234375 0.5490000000000002 C 1.4400234375 0.5490000000000002 1.4565234375 0.5610000000000002 1.4595234375000001 0.5685000000000002 C 1.4025234375 0.6555000000000002 1.3350234375 0.7620000000000002 1.2765234375 0.8490000000000002 M 1.869030029296875 0.37650000000000017 C 1.869030029296875 0.3810000000000002 1.872030029296875 0.3885000000000002 1.872030029296875 0.3945000000000002 C 1.872030029296875 0.4155000000000002 1.837530029296875 0.5190000000000002 1.828530029296875 0.5505000000000002 C 1.788030029296875 0.6825000000000002 1.707030029296875 0.9480000000000002 1.707030029296875 1.0860000000000003 C 1.707030029296875 1.1280000000000001 1.708530029296875 1.2120000000000002 1.752030029296875 1.2255000000000003 C 1.7565300292968749 1.2225000000000001 1.767030029296875 1.2165000000000001 1.767030029296875 1.2120000000000002 L 1.771530029296875 1.2090000000000003 C 1.779030029296875 1.2090000000000003 1.7910300292968748 1.2210000000000003 1.7985300292968749 1.2210000000000003 C 1.794030029296875 1.2135000000000002 1.7910300292968748 1.2030000000000003 1.789530029296875 1.1910000000000003 C 1.789530029296875 1.1880000000000002 1.789530029296875 1.1850000000000003 1.7910300292968748 1.1820000000000002 C 1.7910300292968748 1.1355000000000002 1.828530029296875 0.9390000000000003 1.842030029296875 0.8925000000000002 C 1.864530029296875 0.8205000000000002 1.905030029296875 0.7380000000000002 1.942530029296875 0.6690000000000003 C 1.9500300292968749 0.6630000000000003 1.953030029296875 0.6540000000000002 1.9560300292968749 0.6420000000000002 L 1.960530029296875 0.6405000000000003 C 1.960530029296875 0.6360000000000002 1.972530029296875 0.6225000000000003 1.977030029296875 0.6135000000000002 C 1.981530029296875 0.6120000000000002 1.983030029296875 0.6015000000000001 1.987530029296875 0.5970000000000002 C 1.992030029296875 0.5940000000000002 1.995030029296875 0.5880000000000003 1.998030029296875 0.5835000000000002 C 2.005530029296875 0.5790000000000002 2.008530029296875 0.5760000000000003 2.010030029296875 0.5700000000000003 C 2.026530029296875 0.5490000000000002 2.046030029296875 0.5310000000000001 2.068530029296875 0.5145000000000002 C 2.076030029296875 0.5220000000000002 2.077530029296875 0.5460000000000003 2.077530029296875 0.5565000000000002 C 2.077530029296875 0.6060000000000002 2.068530029296875 0.6555000000000002 2.052030029296875 0.7005000000000002 C 2.001030029296875 0.7305000000000001 1.917030029296875 0.8250000000000002 1.888530029296875 0.8790000000000002 C 1.8795300292968748 0.8910000000000002 1.863030029296875 0.9120000000000003 1.8555300292968748 0.9330000000000003 C 1.852530029296875 0.9390000000000003 1.852530029296875 0.9420000000000002 1.848030029296875 0.9435000000000002 L 1.8555300292968748 0.9540000000000002 C 1.866030029296875 0.9795000000000003 1.900530029296875 0.9930000000000002 1.927530029296875 1.0020000000000002 C 1.933530029296875 1.0065000000000002 1.9380300292968748 1.0080000000000002 1.945530029296875 1.0080000000000002 C 1.953030029296875 1.0080000000000002 1.960530029296875 1.0050000000000003 1.9680300292968749 0.9990000000000002 C 2.046030029296875 0.9435000000000002 2.113530029296875 0.8295000000000002 2.142030029296875 0.7260000000000002 C 2.190030029296875 0.6990000000000003 2.248530029296875 0.6915000000000002 2.310030029296875 0.6750000000000003 C 2.305530029296875 0.6690000000000003 2.305530029296875 0.6600000000000001 2.301030029296875 0.6555000000000002 C 2.280030029296875 0.6405000000000003 2.253030029296875 0.6390000000000002 2.232030029296875 0.6390000000000002 C 2.2215300292968747 0.6390000000000002 2.167530029296875 0.6465000000000003 2.154030029296875 0.6510000000000002 C 2.157030029296875 0.6360000000000002 2.160030029296875 0.5970000000000002 2.160030029296875 0.5865000000000002 C 2.160030029296875 0.5790000000000002 2.157030029296875 0.5400000000000003 2.1525300292968748 0.5340000000000003 C 2.158530029296875 0.5160000000000002 2.109030029296875 0.46950000000000025 2.076030029296875 0.46950000000000025 C 2.016030029296875 0.46950000000000025 1.9500300292968749 0.5295000000000002 1.914030029296875 0.5940000000000002 L 1.911030029296875 0.5940000000000002 C 1.929030029296875 0.5220000000000002 1.947030029296875 0.4830000000000002 1.953030029296875 0.41400000000000026 C 1.9500300292968749 0.40200000000000025 1.926030029296875 0.3720000000000002 1.900530029296875 0.3720000000000002 C 1.902030029296875 0.3720000000000002 1.888530029296875 0.37650000000000017 1.872030029296875 0.37650000000000017 M 1.9320300292968748 0.9390000000000003 C 1.959030029296875 0.8970000000000002 1.9785300292968748 0.8565000000000003 2.014530029296875 0.8205000000000002 L 2.016030029296875 0.8190000000000002 C 2.014530029296875 0.8265000000000002 1.995030029296875 0.8580000000000002 1.9560300292968749 0.9120000000000003 C 1.951530029296875 0.9210000000000003 1.941030029296875 0.9300000000000003 1.933530029296875 0.9390000000000003 M 2.752505126953125 0.6360000000000002 C 2.746505126953125 0.6405000000000003 2.718005126953125 0.6840000000000002 2.710505126953125 0.6990000000000003 C 2.656505126953125 0.7905000000000002 2.583005126953125 0.9015000000000002 2.547005126953125 0.9105000000000002 L 2.5455051269531253 0.9105000000000002 C 2.520005126953125 0.8280000000000003 2.593505126953125 0.6600000000000001 2.575505126953125 0.5970000000000002 C 2.574005126953125 0.5925000000000002 2.574005126953125 0.5850000000000002 2.572505126953125 0.5820000000000003 C 2.565005126953125 0.5640000000000003 2.5215051269531252 0.5475000000000002 2.494505126953125 0.5430000000000001 C 2.455505126953125 0.5460000000000003 2.376005126953125 0.6510000000000002 2.361005126953125 0.6675000000000002 L 2.364005126953125 0.6630000000000003 C 2.374505126953125 0.6285000000000003 2.400005126953125 0.5295000000000002 2.355005126953125 0.5145000000000002 C 2.340005126953125 0.5100000000000002 2.307005126953125 0.5040000000000002 2.298005126953125 0.5025000000000002 L 2.296505126953125 0.5115000000000003 C 2.296505126953125 0.5130000000000002 2.296505126953125 0.5190000000000002 2.296505126953125 0.5205000000000002 C 2.301005126953125 0.5760000000000003 2.203505126953125 0.8070000000000002 2.208005126953125 0.9090000000000003 C 2.208005126953125 0.9195000000000002 2.211005126953125 0.9240000000000003 2.214005126953125 0.9330000000000003 L 2.2170051269531252 0.9345000000000002 C 2.223005126953125 0.9375000000000002 2.223005126953125 0.9435000000000002 2.2290051269531252 0.9480000000000002 C 2.235005126953125 0.9480000000000002 2.256005126953125 0.9570000000000002 2.262005126953125 0.9630000000000002 L 2.265005126953125 0.9600000000000002 C 2.269505126953125 0.9615000000000002 2.266505126953125 0.9630000000000002 2.271005126953125 0.9645000000000002 C 2.2755051269531252 0.9645000000000002 2.277005126953125 0.9645000000000002 2.278505126953125 0.9645000000000002 C 2.278505126953125 0.9645000000000002 2.280005126953125 0.9645000000000002 2.283005126953125 0.9645000000000002 C 2.284505126953125 0.9630000000000002 2.2875051269531252 0.9615000000000002 2.292005126953125 0.9615000000000002 C 2.295005126953125 0.9555000000000002 2.298005126953125 0.9435000000000002 2.304005126953125 0.9270000000000003 C 2.341505126953125 0.8130000000000002 2.412005126953125 0.7125000000000002 2.484005126953125 0.6195000000000002 C 2.484005126953125 0.6195000000000002 2.4870051269531253 0.6120000000000002 2.4870051269531253 0.6195000000000002 C 2.490005126953125 0.6585000000000002 2.442005126953125 0.7845000000000002 2.446505126953125 0.8610000000000002 C 2.448005126953125 0.9195000000000002 2.491505126953125 0.9615000000000002 2.548505126953125 0.9615000000000002 C 2.6520051269531253 0.9390000000000003 2.716505126953125 0.7980000000000003 2.760005126953125 0.7140000000000002 C 2.763005126953125 0.6990000000000003 2.755505126953125 0.6840000000000002 2.761505126953125 0.6675000000000002 C 2.761505126953125 0.6600000000000001 2.763005126953125 0.6555000000000002 2.755505126953125 0.6510000000000002 C 2.757005126953125 0.6450000000000002 2.757005126953125 0.6375000000000002 2.752505126953125 0.6360000000000002 M 2.8455439453125 0.48450000000000026 L 2.8695439453125 0.47550000000000026 C 2.8830439453125 0.4650000000000002 2.9160439453125 0.4500000000000002 2.9160439453125 0.4335000000000002 C 2.9160439453125 0.4335000000000002 2.9160439453125 0.43200000000000016 2.9145439453125004 0.4305000000000002 L 2.9100439453125 0.41400000000000026 C 2.9055439453125 0.4065000000000002 2.8905439453125004 0.3975000000000002 2.8785439453125004 0.3975000000000002 C 2.8710439453125 0.3975000000000002 2.8635439453125002 0.39900000000000024 2.8545439453125003 0.40200000000000025 C 2.8335439453125 0.41700000000000026 2.8200439453125004 0.43500000000000016 2.8185439453125003 0.4590000000000002 C 2.8185439453125003 0.4620000000000002 2.8290439453125003 0.4770000000000002 2.8335439453125 0.4770000000000002 L 2.8365439453125 0.4770000000000002 L 2.8455439453125 0.4830000000000002 M 3.0675439453125 0.6060000000000002 L 3.0600439453125 0.6120000000000002 C 2.9595439453125003 0.7380000000000002 2.8560439453125004 0.8940000000000002 2.8095439453125 0.8910000000000002 C 2.8050439453125002 0.8910000000000002 2.8020439453125 0.8895000000000002 2.8020439453125 0.8850000000000002 C 2.7885439453125 0.8160000000000003 2.8440439453125004 0.6765000000000002 2.8695439453125 0.5610000000000002 C 2.8710439453125 0.5520000000000003 2.8680439453125004 0.5400000000000003 2.8650439453125003 0.5310000000000001 C 2.8605439453125 0.5235000000000003 2.8545439453125003 0.5190000000000002 2.8440439453125004 0.5175000000000003 C 2.8335439453125 0.5175000000000003 2.8065439453125003 0.5175000000000003 2.7960439453125003 0.5190000000000002 L 2.7900439453125 0.5235000000000003 C 2.7780439453125 0.5535000000000002 2.7105439453125 0.7185000000000002 2.7060439453125 0.8190000000000002 C 2.7015439453125003 0.8985000000000002 2.7615439453125004 0.9345000000000002 2.8065439453125003 0.9465000000000002 C 2.8335439453125 0.9465000000000002 2.8470439453125 0.9345000000000002 2.8695439453125 0.9255000000000002 C 2.9400439453125 0.8655000000000002 2.9895439453125 0.7980000000000003 3.0510439453125002 0.7035000000000002 C 3.0480439453125 0.7035000000000002 3.0510439453125002 0.7020000000000002 3.0510439453125002 0.7005000000000002 C 3.0540439453125003 0.6870000000000003 3.0600439453125 0.6690000000000003 3.0660439453125004 0.6570000000000003 L 3.0630439453125002 0.6555000000000002 C 3.0660439453125004 0.6510000000000002 3.0675439453125 0.6465000000000003 3.0675439453125 0.6420000000000002 C 3.0675439453125 0.6300000000000002 3.0660439453125004 0.6195000000000002 3.0675439453125 0.6060000000000002 M 3.3765256347656254 0.5910000000000002 L 3.3765256347656254 0.5835000000000002 C 3.357025634765625 0.6045000000000003 3.3405256347656254 0.6330000000000002 3.3255256347656252 0.6570000000000003 C 3.2940256347656254 0.7020000000000002 3.2085256347656252 0.8265000000000002 3.100525634765625 0.9375000000000002 L 3.0945256347656254 0.9375000000000002 C 3.0840256347656254 0.9195000000000002 3.0855256347656255 0.8970000000000002 3.0855256347656255 0.8745000000000003 C 3.0855256347656255 0.7800000000000002 3.1200256347656254 0.6825000000000002 3.1575256347656255 0.5850000000000002 C 3.231025634765625 0.42000000000000026 3.264025634765625 0.25350000000000017 3.2460256347656253 0.21450000000000025 C 3.231025634765625 0.18600000000000017 3.193525634765625 0.18300000000000016 3.1755256347656253 0.17850000000000021 L 3.172525634765625 0.18000000000000016 C 3.1545256347656254 0.2160000000000002 3.1410256347656254 0.2715000000000002 3.1290256347656253 0.30900000000000016 C 3.0735256347656255 0.47850000000000026 2.9865256347656253 0.6780000000000002 2.9865256347656253 0.8610000000000002 C 2.9865256347656253 0.9105000000000002 3.0105256347656253 0.9720000000000002 3.078025634765625 0.9840000000000002 C 3.0840256347656254 0.9855000000000003 3.088525634765625 0.9855000000000003 3.0945256347656254 0.9855000000000003 C 3.1620256347656253 0.9855000000000003 3.207025634765625 0.9090000000000003 3.2460256347656253 0.8610000000000002 C 3.2580256347656253 0.8445000000000003 3.277525634765625 0.8205000000000002 3.286525634765625 0.8025000000000002 C 3.2925256347656253 0.7995000000000002 3.2940256347656254 0.7935000000000002 3.2985256347656255 0.7890000000000003 L 3.301525634765625 0.7815000000000002 L 3.3075256347656254 0.7800000000000002 L 3.3045256347656253 0.7755000000000002 L 3.3090256347656255 0.7740000000000002 C 3.312025634765625 0.7665000000000002 3.3285256347656254 0.7395000000000003 3.3315256347656255 0.7365000000000002 C 3.334525634765625 0.7290000000000002 3.3390256347656253 0.7260000000000002 3.3435256347656255 0.7185000000000002 L 3.3390256347656253 0.7140000000000002 C 3.3405256347656254 0.7095000000000002 3.346525634765625 0.7050000000000003 3.348025634765625 0.6990000000000003 C 3.3390256347656253 0.7110000000000003 3.3315256347656255 0.7230000000000002 3.322525634765625 0.7350000000000002 C 3.3285256347656254 0.7200000000000002 3.3645256347656254 0.6645000000000002 3.3645256347656254 0.6555000000000002 L 3.3645256347656254 0.6510000000000002 C 3.358525634765625 0.6570000000000003 3.357025634765625 0.6645000000000002 3.3540256347656254 0.6675000000000002 C 3.3555256347656255 0.6600000000000001 3.358525634765625 0.6555000000000002 3.3645256347656254 0.6480000000000002 L 3.3660256347656254 0.6405000000000003 C 3.3660256347656254 0.6405000000000003 3.3660256347656254 0.6390000000000002 3.3660256347656254 0.6390000000000002 L 3.3630256347656253 0.6405000000000003 L 3.3615256347656253 0.6330000000000002 C 3.3630256347656253 0.6315000000000002 3.3720256347656252 0.6150000000000002 3.3720256347656252 0.6120000000000002 C 3.3720256347656252 0.6090000000000002 3.3735256347656253 0.6045000000000003 3.3750256347656253 0.6015000000000001 C 3.3765256347656254 0.5970000000000002 3.3765256347656254 0.5955000000000001 3.3765256347656254 0.5910000000000002 M 1.01924853515625 2.1630000000000003 C 0.9697485351562499 2.166 0.95024853515625 2.181 0.90374853515625 2.1915 C 0.8497485351562499 2.0475000000000003 0.5242485351562499 2.0145 0.5197485351562499 1.9575 C 0.5122485351562499 1.8495 0.7492485351562499 1.6095000000000002 0.88574853515625 1.6095000000000002 C 0.89774853515625 1.6095000000000002 0.90974853515625 1.6110000000000002 0.9202485351562499 1.6155 C 1.01324853515625 1.653 0.9397485351562499 1.767 1.00874853515625 1.767 C 1.02674853515625 1.767 1.0477485351562499 1.7445 1.0477485351562499 1.7295 C 1.0477485351562499 1.6230000000000002 0.9787485351562499 1.5525000000000002 0.8947485351562499 1.5270000000000001 C 0.8842485351562499 1.5255 0.87374853515625 1.5255 0.8632485351562499 1.5255 C 0.6652485351562499 1.5255 0.4267485351562499 1.782 0.4267485351562499 1.9245 C 0.4267485351562499 2.0985 0.6622485351562499 2.1015 0.7777485351562499 2.1765 C 0.78674853515625 2.1825 0.8047485351562499 2.2035 0.8077485351562499 2.217 C 0.7027485351562499 2.253 0.5287485351562499 2.3535 0.4717485351562499 2.451 C 0.4717485351562499 2.4615 0.5197485351562499 2.5275000000000003 0.5272485351562499 2.5395 C 0.5362485351562499 2.5545 0.56024853515625 2.5605 0.5767485351562499 2.5605 C 0.7267485351562499 2.5605 0.9202485351562499 2.3565 0.9142485351562499 2.2515 C 0.9367485351562499 2.244 1.0477485351562499 2.2155 1.0537485351562499 2.208 L 1.0477485351562499 2.2065 L 1.04924853515625 2.202 C 1.04924853515625 2.199 1.0357485351562499 2.19 1.03124853515625 2.184 C 1.03874853515625 2.1825 1.0462485351562498 2.1825 1.05074853515625 2.1795 C 1.0447485351562498 2.1735 1.03124853515625 2.1735 1.0222485351562498 2.172 M 0.5452485351562499 2.4615 C 0.5542485351562499 2.43 0.74474853515625 2.2995 0.7987485351562499 2.2875 C 0.7987485351562499 2.2920000000000003 0.7957485351562499 2.2965 0.7942485351562499 2.2995 C 0.7672485351562499 2.355 0.6487485351562499 2.4645 0.56324853515625 2.4645 C 0.5587485351562499 2.4645 0.5512485351562499 2.463 0.5452485351562499 2.4615 M 1.119727294921875 2.0100000000000002 L 1.143727294921875 2.0010000000000003 C 1.1572272949218751 1.9905 1.190227294921875 1.9755 1.190227294921875 1.959 C 1.190227294921875 1.959 1.190227294921875 1.9575 1.188727294921875 1.956 L 1.184227294921875 1.9395000000000002 C 1.1797272949218751 1.932 1.164727294921875 1.923 1.152727294921875 1.923 C 1.1452272949218751 1.923 1.137727294921875 1.9245 1.128727294921875 1.9275000000000002 C 1.107727294921875 1.9425000000000001 1.094227294921875 1.9605000000000001 1.092727294921875 1.9845000000000002 C 1.092727294921875 1.9875 1.103227294921875 2.0025 1.107727294921875 2.0025 L 1.110727294921875 2.0025 L 1.119727294921875 2.0085 M 1.341727294921875 2.1315 L 1.334227294921875 2.1375 C 1.233727294921875 2.2635 1.130227294921875 2.4195 1.083727294921875 2.4165 C 1.079227294921875 2.4165 1.076227294921875 2.415 1.076227294921875 2.4105 C 1.0627272949218751 2.3415 1.118227294921875 2.202 1.143727294921875 2.0865 C 1.1452272949218751 2.0775 1.142227294921875 2.0655 1.139227294921875 2.0565 C 1.134727294921875 2.049 1.128727294921875 2.0445 1.118227294921875 2.043 C 1.107727294921875 2.043 1.080727294921875 2.043 1.070227294921875 2.0445 L 1.064227294921875 2.049 C 1.052227294921875 2.079 0.984727294921875 2.244 0.980227294921875 2.3445 C 0.975727294921875 2.424 1.035727294921875 2.46 1.080727294921875 2.472 C 1.107727294921875 2.472 1.1212272949218751 2.46 1.143727294921875 2.451 C 1.214227294921875 2.391 1.263727294921875 2.3235 1.325227294921875 2.229 C 1.322227294921875 2.229 1.325227294921875 2.2275 1.325227294921875 2.226 C 1.328227294921875 2.2125 1.334227294921875 2.1945 1.340227294921875 2.1825 L 1.337227294921875 2.181 C 1.340227294921875 2.1765 1.341727294921875 2.172 1.341727294921875 2.1675 C 1.341727294921875 2.1555 1.340227294921875 2.145 1.341727294921875 2.1315 M 1.790208984375 2.1615 C 1.784208984375 2.166 1.755708984375 2.2095000000000002 1.748208984375 2.2245 C 1.694208984375 2.3160000000000003 1.620708984375 2.427 1.584708984375 2.436 L 1.583208984375 2.436 C 1.557708984375 2.3535 1.631208984375 2.1855 1.613208984375 2.1225 C 1.6117089843749999 2.118 1.6117089843749999 2.1105 1.6102089843749998 2.1075 C 1.602708984375 2.0895 1.5592089843749999 2.073 1.532208984375 2.0685000000000002 C 1.4932089843749998 2.0715 1.413708984375 2.1765 1.398708984375 2.193 L 1.401708984375 2.1885 C 1.4122089843749999 2.154 1.437708984375 2.055 1.392708984375 2.04 C 1.377708984375 2.0355 1.344708984375 2.0295 1.3357089843749999 2.028 L 1.334208984375 2.037 C 1.334208984375 2.0385 1.334208984375 2.0445 1.334208984375 2.0460000000000003 C 1.338708984375 2.1015 1.2412089843749998 2.3325 1.245708984375 2.4345 C 1.245708984375 2.4450000000000003 1.2487089843749999 2.4495 1.251708984375 2.4585 L 1.254708984375 2.46 C 1.260708984375 2.463 1.260708984375 2.4690000000000003 1.266708984375 2.4735 C 1.272708984375 2.4735 1.293708984375 2.4825 1.2997089843749998 2.4885 L 1.302708984375 2.4855 C 1.3072089843749999 2.487 1.304208984375 2.4885 1.308708984375 2.49 C 1.3132089843749999 2.49 1.314708984375 2.49 1.316208984375 2.49 C 1.316208984375 2.49 1.3177089843749998 2.49 1.320708984375 2.49 C 1.322208984375 2.4885 1.325208984375 2.487 1.3297089843749998 2.487 C 1.332708984375 2.481 1.3357089843749999 2.4690000000000003 1.3417089843749999 2.4525 C 1.379208984375 2.3385000000000002 1.449708984375 2.238 1.521708984375 2.145 C 1.521708984375 2.145 1.524708984375 2.1375 1.524708984375 2.145 C 1.527708984375 2.184 1.479708984375 2.31 1.484208984375 2.3865000000000003 C 1.485708984375 2.4450000000000003 1.5292089843749999 2.487 1.5862089843749998 2.487 C 1.689708984375 2.4645 1.754208984375 2.3235 1.7977089843749998 2.2395 C 1.800708984375 2.2245 1.7932089843749999 2.2095000000000002 1.7992089843749999 2.193 C 1.7992089843749999 2.1855 1.800708984375 2.181 1.7932089843749999 2.1765 C 1.794708984375 2.1705 1.794708984375 2.1630000000000003 1.790208984375 2.1615 M 2.397747802734375 2.1735 C 2.391747802734375 2.1735 2.3857478027343753 2.1750000000000003 2.378247802734375 2.1750000000000003 L 2.379747802734375 2.172 L 2.396247802734375 2.1645000000000003 C 2.391747802734375 2.1630000000000003 2.3872478027343753 2.1630000000000003 2.384247802734375 2.1615 L 2.391747802734375 2.1585 C 2.384247802734375 2.157 2.376747802734375 2.148 2.367747802734375 2.148 C 2.367747802734375 2.148 2.366247802734375 2.148 2.364747802734375 2.148 C 2.301747802734375 2.166 2.267247802734375 2.1945 2.223747802734375 2.2125 L 2.223747802734375 2.2095000000000002 C 2.223747802734375 2.1825 2.226747802734375 2.1555 2.226747802734375 2.1285 C 2.226747802734375 2.1165000000000003 2.223747802734375 2.028 2.216247802734375 2.013 C 2.211747802734375 2.0010000000000003 2.195247802734375 1.9995 2.180247802734375 1.992 L 2.1757478027343753 1.9935 C 2.166747802734375 1.9935 2.163747802734375 1.9905 2.160747802734375 1.9905 C 2.135247802734375 1.9905 2.078247802734375 2.0475000000000003 2.0587478027343753 2.0655 L 2.0347478027343753 2.049 C 2.015247802734375 2.0445 1.998747802734375 2.0235000000000003 1.974747802734375 2.0235000000000003 C 1.847247802734375 2.0235000000000003 1.719747802734375 2.226 1.719747802734375 2.3280000000000003 C 1.719747802734375 2.3745000000000003 1.763247802734375 2.4450000000000003 1.817247802734375 2.4450000000000003 C 1.880247802734375 2.4450000000000003 2.025747802734375 2.247 2.061747802734375 2.2005 C 2.094747802734375 2.1585 2.108247802734375 2.13 2.139747802734375 2.091 C 2.139747802734375 2.085 2.135247802734375 2.2485 2.123247802734375 2.271 C 1.992747802734375 2.3625000000000003 1.8487478027343751 2.568 1.803747802734375 2.7195 L 1.800747802734375 2.724 C 1.799247802734375 2.7315 1.794747802734375 2.7375000000000003 1.794747802734375 2.7435 L 1.788747802734375 2.7495000000000003 C 1.788747802734375 2.7555 1.7902478027343751 2.7615000000000003 1.793247802734375 2.7645 C 1.794747802734375 2.766 1.797747802734375 2.769 1.794747802734375 2.7705 C 1.799247802734375 2.7840000000000003 1.835247802734375 2.8005 1.842747802734375 2.811 L 1.8442478027343752 2.811 C 1.856247802734375 2.8215000000000003 1.883247802734375 2.829 1.8967478027343752 2.829 C 1.911747802734375 2.829 1.9432478027343751 2.8125 1.953747802734375 2.8065 C 2.073747802734375 2.7465 2.1862478027343752 2.49 2.204247802734375 2.3535 L 2.216247802734375 2.2920000000000003 C 2.2687478027343753 2.2560000000000002 2.331747802734375 2.217 2.379747802734375 2.19 L 2.384247802734375 2.181 C 2.388747802734375 2.1795 2.393247802734375 2.1750000000000003 2.397747802734375 2.1735 M 1.812747802734375 2.37 C 1.8082478027343751 2.3385000000000002 1.8202478027343751 2.298 1.833747802734375 2.274 C 1.8667478027343751 2.2110000000000003 1.9432478027343751 2.1015 2.001747802734375 2.1015 C 2.009247802734375 2.1015 2.015247802734375 2.103 2.022747802734375 2.1075 C 2.007747802734375 2.1315 1.8442478027343752 2.3535 1.812747802734375 2.37 M 2.114247802734375 2.373 C 2.114247802734375 2.373 2.091747802734375 2.4465 2.088747802734375 2.451 C 2.060247802734375 2.5305 1.986747802734375 2.6775 1.916247802734375 2.724 L 1.9147478027343752 2.721 C 1.9147478027343752 2.724 1.910247802734375 2.7255000000000003 1.907247802734375 2.7255000000000003 C 1.905747802734375 2.7345 1.893747802734375 2.739 1.883247802734375 2.742 L 1.881747802734375 2.742 C 1.881747802734375 2.6445000000000003 2.033247802734375 2.4450000000000003 2.100747802734375 2.379 C 2.1052478027343753 2.3745000000000003 2.109747802734375 2.3715 2.114247802734375 2.3685 M 2.643740478515625 2.0385 C 2.5657404785156253 2.0385 2.459240478515625 2.244 2.4277404785156254 2.3205 C 2.435240478515625 2.253 2.4607404785156253 2.1345 2.4952404785156252 2.0535 C 2.516240478515625 2.0145 2.621240478515625 1.7805 2.5417404785156252 1.7535 C 2.5297404785156252 1.7505000000000002 2.513240478515625 1.7445 2.490740478515625 1.743 L 2.487740478515625 1.7505000000000002 C 2.516240478515625 1.7475 2.3332404785156253 2.118 2.3227404785156254 2.3475 C 2.3197404785156253 2.382 2.324240478515625 2.3970000000000002 2.3437404785156253 2.424 C 2.358740478515625 2.4255 2.364740478515625 2.436 2.387240478515625 2.436 C 2.397740478515625 2.436 2.420240478515625 2.439 2.4367404785156253 2.439 C 2.442740478515625 2.439 2.447240478515625 2.4375 2.4502404785156253 2.4375 C 2.489240478515625 2.3625000000000003 2.604740478515625 2.1225 2.655740478515625 2.0955 C 2.6737404785156254 2.1135 2.6017404785156253 2.274 2.6017404785156253 2.3775 C 2.6017404785156253 2.4015 2.606240478515625 2.442 2.6257404785156253 2.4615 C 2.630240478515625 2.478 2.669240478515625 2.4975 2.6842404785156253 2.5035000000000003 C 2.693240478515625 2.5035000000000003 2.702240478515625 2.505 2.7097404785156254 2.505 C 2.715740478515625 2.505 2.724740478515625 2.499 2.7322404785156253 2.499 C 2.775740478515625 2.481 2.865740478515625 2.364 2.892740478515625 2.2905 C 2.8957404785156253 2.2815000000000003 2.8987404785156254 2.271 2.9047404785156252 2.2635 L 2.9197404785156253 2.2395 L 2.912240478515625 2.247 L 2.9197404785156253 2.2335000000000003 L 2.909240478515625 2.247 C 2.912240478515625 2.2365 2.9182404785156253 2.2275 2.9212404785156254 2.2155 L 2.9212404785156254 2.2110000000000003 L 2.9182404785156253 2.2155 C 2.9212404785156254 2.202 2.927240478515625 2.19 2.927240478515625 2.1735 C 2.927240478515625 2.1675 2.925740478515625 2.1645000000000003 2.9212404785156254 2.1585 L 2.9182404785156253 2.1645000000000003 L 2.912240478515625 2.1585 C 2.8732404785156254 2.2245 2.747240478515625 2.4435000000000002 2.702240478515625 2.4555000000000002 L 2.6977404785156254 2.4555000000000002 C 2.6872404785156254 2.4450000000000003 2.691740478515625 2.4225 2.691740478515625 2.4075 C 2.691740478515625 2.31 2.751740478515625 2.1825 2.739740478515625 2.0985 C 2.7337404785156254 2.058 2.664740478515625 2.0385 2.643740478515625 2.0385" fill="#ffffff" fill-rule="nonzero"></path></g><g><path d=" M 0.45722656250000016 3.2152 C 0.46222656250000016 3.2152 0.46772656250000016 3.2157 0.47222656250000017 3.2157 C 0.4852265625000002 3.2157 0.5172265625000002 3.2121999999999997 0.5172265625000002 3.1986999999999997 C 0.5172265625000002 3.1927 0.5142265625000002 3.1867 0.5087265625000001 3.1867 C 0.49672656250000014 3.1867 0.4852265625000002 3.1882 0.47372656250000017 3.1882 C 0.46222656250000016 3.1882 0.45122656250000015 3.1852 0.44172656250000014 3.1852 C 0.43772656250000014 3.1852 0.43122656250000013 3.1892 0.4307265625000002 3.1936999999999998 C 0.4212265625000002 3.2717 0.40922656250000017 3.3491999999999997 0.40922656250000017 3.4287 C 0.40922656250000017 3.4467 0.41172656250000017 3.4857 0.43672656250000014 3.4857 C 0.44772656250000015 3.4857 0.4832265625000002 3.4682 0.49572656250000013 3.4637 C 0.5012265625000002 3.4637 0.5052265625000002 3.4552 0.5052265625000002 3.4507 C 0.5052265625000002 3.4427 0.49772656250000014 3.4421999999999997 0.4912265625000002 3.4421999999999997 C 0.4827265625000002 3.4421999999999997 0.44872656250000015 3.4552 0.44022656250000014 3.4552 C 0.43622656250000014 3.4516999999999998 0.43722656250000014 3.4167 0.43722656250000014 3.4102 C 0.43722656250000014 3.3931999999999998 0.43872656250000014 3.3712 0.44022656250000014 3.3542 C 0.44072656250000014 3.3502 0.44522656250000014 3.3491999999999997 0.44972656250000015 3.3476999999999997 C 0.46522656250000016 3.3422 0.4807265625000002 3.3407 0.4962265625000002 3.3346999999999998 C 0.49972656250000014 3.3331999999999997 0.5012265625000002 3.3287 0.5012265625000002 3.3257 C 0.5012265625000002 3.3167 0.49972656250000014 3.3162 0.4912265625000002 3.3162 C 0.47422656250000017 3.3167 0.45872656250000016 3.3202 0.44322656250000014 3.3202 C 0.44672656250000015 3.2862 0.45122656250000015 3.2492 0.45722656250000016 3.2152 M 0.6187358398437501 3.3987 C 0.6187358398437501 3.3922 0.6172358398437502 3.3857 0.6157358398437501 3.3796999999999997 C 0.6102358398437502 3.3527 0.6062358398437502 3.3287 0.6012358398437502 3.3017 C 0.5982358398437502 3.2817 0.5942358398437502 3.2592 0.5907358398437501 3.2397 C 0.5887358398437501 3.2272 0.5877358398437502 3.2142 0.5847358398437502 3.2022 C 0.5822358398437502 3.1902 0.5767358398437502 3.1877 0.5652358398437501 3.1877 C 0.5522358398437501 3.1877 0.5457358398437502 3.1997 0.5462358398437501 3.2182 C 0.5467358398437502 3.2586999999999997 0.5452358398437501 3.2992 0.5437358398437502 3.3396999999999997 C 0.5432358398437501 3.3622 0.5422358398437501 3.3882 0.5412358398437501 3.4102 C 0.5387358398437502 3.4381999999999997 0.5342358398437501 3.4602 0.5392358398437501 3.4792 C 0.5402358398437501 3.4837 0.5442358398437501 3.4861999999999997 0.5487358398437502 3.4861999999999997 C 0.5532358398437501 3.4861999999999997 0.5587358398437502 3.4832 0.5602358398437501 3.4767 C 0.5652358398437501 3.4556999999999998 0.5687358398437502 3.3091999999999997 0.5687358398437502 3.3062 C 0.5692358398437501 3.2962 0.5697358398437502 3.2742 0.5692358398437501 3.2637 C 0.5717358398437502 3.2666999999999997 0.5822358398437502 3.3342 0.5832358398437502 3.3396999999999997 C 0.5842358398437502 3.3451999999999997 0.5957358398437502 3.4152 0.6092358398437502 3.4682 C 0.6102358398437502 3.4722 0.6147358398437501 3.4757 0.6192358398437502 3.4757 C 0.6247358398437501 3.4752 0.6277358398437501 3.4712 0.6282358398437502 3.4657 C 0.6377358398437502 3.4657 0.6432358398437502 3.4617 0.6432358398437502 3.4541999999999997 C 0.6432358398437502 3.4476999999999998 0.6412358398437502 3.4417 0.6412358398437502 3.4352 C 0.6422358398437502 3.3887 0.6437358398437502 3.3082 0.6462358398437502 3.2622 C 0.6472358398437501 3.2447 0.6487358398437502 3.2187 0.6482358398437502 3.2012 C 0.6482358398437502 3.1952 0.6422358398437502 3.1892 0.6352358398437502 3.1892 C 0.6332358398437502 3.1892 0.6312358398437502 3.1896999999999998 0.6292358398437502 3.1912 C 0.6232358398437502 3.1942 0.6232358398437502 3.2306999999999997 0.6232358398437502 3.2392 C 0.6227358398437501 3.2586999999999997 0.6192358398437502 3.3507 0.6187358398437501 3.3987 M 0.7427385253906251 3.2167 C 0.7452385253906252 3.2167 0.7482385253906252 3.2167 0.7512385253906252 3.2167 C 0.7572385253906252 3.2167 0.7632385253906252 3.2167 0.7657385253906251 3.2167 C 0.7702385253906252 3.2172 0.7737385253906252 3.2132 0.7737385253906252 3.2087 C 0.7732385253906252 3.2027 0.7702385253906252 3.1976999999999998 0.7647385253906251 3.1947 C 0.7592385253906252 3.1921999999999997 0.7367385253906251 3.1907 0.7152385253906252 3.1907 C 0.7082385253906252 3.1907 0.7017385253906252 3.1907 0.6957385253906252 3.1912 C 0.6952385253906251 3.1912 0.6947385253906252 3.1912 0.6947385253906252 3.1912 C 0.6902385253906251 3.1912 0.6862385253906251 3.1892 0.6817385253906252 3.1892 C 0.6817385253906252 3.1892 0.6812385253906251 3.1892 0.6807385253906252 3.1892 C 0.6772385253906251 3.1892 0.6737385253906252 3.1927 0.6742385253906251 3.1967 C 0.6742385253906251 3.1992 0.6737385253906252 3.2027 0.6762385253906251 3.2047 C 0.6772385253906251 3.2121999999999997 0.6802385253906251 3.2187 0.6892385253906251 3.2182 C 0.6982385253906251 3.2177 0.6927385253906252 3.2172 0.7022385253906251 3.2167 C 0.7082385253906252 3.2167 0.7112385253906252 3.2167 0.7112385253906252 3.2226999999999997 C 0.7107385253906252 3.2477 0.7062385253906251 3.2982 0.7042385253906251 3.3312 C 0.7012385253906251 3.3731999999999998 0.6967385253906252 3.4207 0.6977385253906252 3.4637 C 0.6982385253906251 3.4752 0.7032385253906251 3.4846999999999997 0.7162385253906252 3.4842 C 0.7222385253906252 3.4842 0.7277385253906252 3.4807 0.7277385253906252 3.4741999999999997 C 0.7277385253906252 3.4682 0.7247385253906252 3.4632 0.7242385253906252 3.4572 C 0.7232385253906252 3.4172 0.7327385253906251 3.2812 0.7362385253906252 3.2466999999999997 C 0.7372385253906252 3.2367 0.7372385253906252 3.2262 0.7427385253906251 3.2167 M 0.8317475585937502 3.3042 C 0.8322475585937502 3.2762 0.8407475585937502 3.2277 0.8407475585937502 3.1947 C 0.8407475585937502 3.1867 0.8277475585937502 3.1767 0.8197475585937501 3.1767 C 0.8162475585937502 3.1767 0.8127475585937501 3.1802 0.8127475585937501 3.1837 C 0.8127475585937501 3.1877 0.8137475585937501 3.1917 0.8137475585937501 3.1952 C 0.8137475585937501 3.2222 0.8062475585937502 3.2927 0.8052475585937502 3.3091999999999997 C 0.8027475585937501 3.3097 0.7942475585937502 3.3112 0.7862475585937502 3.3142 C 0.7842475585937502 3.3152 0.7832475585937502 3.3171999999999997 0.7832475585937502 3.3197 C 0.7832475585937502 3.3211999999999997 0.7837475585937502 3.3226999999999998 0.7842475585937502 3.3247 C 0.7842475585937502 3.3266999999999998 0.7862475585937502 3.3257 0.7862475585937502 3.3272 C 0.7922475585937502 3.3337 0.7952475585937502 3.3337 0.8027475585937501 3.3337 C 0.8002475585937502 3.3662 0.7967475585937501 3.3902 0.7967475585937501 3.4227 C 0.7967475585937501 3.4337 0.7987475585937501 3.4447 0.7987475585937501 3.4556999999999998 C 0.7987475585937501 3.4672 0.8032475585937502 3.4792 0.8167475585937501 3.4792 C 0.8202475585937502 3.4792 0.8287475585937502 3.4767 0.8287475585937502 3.4717 C 0.8287475585937502 3.4697 0.8282475585937502 3.4682 0.8282475585937502 3.4661999999999997 C 0.8182475585937502 3.4457 0.8267475585937502 3.3592 0.8297475585937502 3.3322 C 0.8302475585937502 3.3272 0.8312475585937502 3.3282 0.8362475585937502 3.3266999999999998 C 0.8552475585937502 3.3226999999999998 0.8622475585937501 3.3217 0.8817475585937502 3.3197 C 0.8777475585937502 3.3527 0.8777475585937502 3.3796999999999997 0.8752475585937501 3.4122 C 0.8737475585937502 3.4337 0.8732475585937501 3.4527 0.8732475585937501 3.4741999999999997 C 0.8732475585937501 3.4867 0.8777475585937502 3.4972 0.8917475585937502 3.4972 C 0.8957475585937502 3.4972 0.9037475585937502 3.4932 0.9037475585937502 3.4886999999999997 C 0.9037475585937502 3.4872 0.9022475585937502 3.4846999999999997 0.9022475585937502 3.4821999999999997 C 0.8997475585937502 3.4787 0.8982475585937502 3.4747 0.8982475585937502 3.4697 C 0.8982475585937502 3.4172 0.9012475585937502 3.3697 0.9062475585937502 3.3167 C 0.9127475585937501 3.3157 0.9312475585937502 3.3106999999999998 0.9312475585937502 3.3022 C 0.9312475585937502 3.2992 0.9292475585937502 3.2927 0.9252475585937502 3.2927 C 0.9242475585937502 3.2927 0.9227475585937501 3.2927 0.9217475585937502 3.2937 L 0.9077475585937502 3.2952 C 0.9097475585937502 3.2721999999999998 0.9097475585937502 3.2672 0.9117475585937502 3.2447 C 0.9127475585937501 3.2306999999999997 0.9162475585937502 3.2157 0.9162475585937502 3.2016999999999998 C 0.9162475585937502 3.1902 0.9057475585937502 3.1822 0.8967475585937502 3.1822 C 0.8912475585937502 3.1822 0.8897475585937502 3.1862 0.8897475585937502 3.1917 C 0.8897475585937502 3.2267 0.8847475585937502 3.2742 0.8822475585937501 3.2977 C 0.8647475585937502 3.2992 0.8492475585937502 3.3011999999999997 0.8317475585937502 3.3042 M 0.9887341308593752 3.4612 C 0.9777341308593752 3.4612 0.9732341308593752 3.4047 0.9752341308593752 3.3552 C 0.9767341308593752 3.3112 0.9792341308593752 3.2367 0.9832341308593752 3.2201999999999997 C 0.9837341308593752 3.2167 0.9857341308593752 3.2137 0.9857341308593752 3.2107 C 0.9857341308593752 3.2027 0.9757341308593752 3.1967 0.9687341308593752 3.1972 C 0.9592341308593751 3.1976999999999998 0.9512341308593751 3.2022 0.9517341308593752 3.2132 C 0.9517341308593752 3.2187 0.9512341308593751 3.2232 0.9512341308593751 3.2287 C 0.9482341308593751 3.2657 0.9472341308593751 3.3057 0.9462341308593751 3.3442 C 0.9442341308593751 3.4087 0.9492341308593751 3.4857 0.9912341308593752 3.4857 C 1.025234130859375 3.4857 1.0382341308593752 3.3947 1.041234130859375 3.3716999999999997 C 1.0482341308593752 3.3202 1.0537341308593753 3.2352 1.0532341308593751 3.2212 C 1.0527341308593752 3.2112 1.0577341308593753 3.1802 1.037234130859375 3.1802 C 1.0347341308593752 3.1802 1.0317341308593753 3.1807 1.0287341308593752 3.1816999999999998 C 1.0287341308593752 3.2386999999999997 1.023234130859375 3.3112 1.0142341308593752 3.3676999999999997 C 1.0062341308593752 3.4142 0.9967341308593751 3.4612 0.9887341308593752 3.4612 M 1.08722021484375 3.4492 C 1.08472021484375 3.4487 1.07822021484375 3.4567 1.07822021484375 3.4592 C 1.07922021484375 3.4727 1.09122021484375 3.4827 1.10472021484375 3.4827 C 1.13972021484375 3.4787 1.15122021484375 3.4202 1.14872021484375 3.3912 C 1.1442202148437501 3.3432 1.1077202148437502 3.3137 1.10472021484375 3.2857 C 1.10222021484375 3.2592 1.1262202148437501 3.2187 1.15472021484375 3.2182 C 1.15572021484375 3.2187 1.15672021484375 3.2192 1.15772021484375 3.2192 C 1.16472021484375 3.2192 1.16522021484375 3.2056999999999998 1.1642202148437502 3.2022 C 1.16172021484375 3.1936999999999998 1.15322021484375 3.1927 1.14572021484375 3.1927 C 1.10222021484375 3.1961999999999997 1.0777202148437501 3.2572 1.08072021484375 3.2887 C 1.0837202148437501 3.3266999999999998 1.1202202148437501 3.3537 1.1237202148437502 3.3942 C 1.12672021484375 3.4242 1.1157202148437502 3.4552 1.0997202148437502 3.4567 C 1.09472021484375 3.4572 1.09222021484375 3.4537 1.08722021484375 3.4492 M 1.2117099609375 3.1856999999999998 C 1.2027099609375 3.1856999999999998 1.1977099609375 3.1887 1.1957099609375 3.1982 C 1.1947099609375 3.2077 1.1947099609375 3.2157 1.1947099609375 3.2252 C 1.1937099609375 3.3011999999999997 1.1897099609375 3.3827 1.1842099609374999 3.4596999999999998 C 1.1842099609374999 3.4612 1.1837099609375 3.4632 1.1847099609375 3.4642 C 1.1837099609375 3.4701999999999997 1.1877099609375 3.4812 1.1937099609375 3.4821999999999997 C 1.1967099609375 3.4827 1.1987099609375 3.4827 1.2007099609375 3.4827 C 1.2067099609375 3.4827 1.2077099609375 3.4802 1.2087099609375 3.4732 C 1.2172099609375 3.3842 1.2172099609375 3.2817 1.2227099609375 3.1976999999999998 C 1.2237099609375 3.1887 1.2172099609375 3.1896999999999998 1.2117099609375 3.1856999999999998 M 1.3112192382812498 3.3317 C 1.3147192382812498 3.3662 1.3142192382812499 3.4122 1.3202192382812499 3.4767 C 1.3207192382812498 3.4852 1.32371923828125 3.4882 1.3322192382812499 3.4886999999999997 C 1.3372192382812498 3.4886999999999997 1.3492192382812498 3.4877 1.34971923828125 3.4842 C 1.34971923828125 3.4812 1.34771923828125 3.4812 1.3472192382812498 3.4777 C 1.3407192382812498 3.4402 1.3387192382812498 3.3622 1.33771923828125 3.3306999999999998 C 1.3372192382812498 3.3257 1.3412192382812498 3.3242 1.34171923828125 3.3186999999999998 C 1.3427192382812498 3.3131999999999997 1.3407192382812498 3.3072 1.3367192382812498 3.3057 C 1.3352192382812498 3.2737 1.3327192382812498 3.2241999999999997 1.3302192382812499 3.1921999999999997 C 1.3292192382812498 3.1856999999999998 1.3132192382812498 3.1816999999999998 1.30771923828125 3.1816999999999998 C 1.29721923828125 3.1822 1.2922192382812498 3.1927 1.2902192382812498 3.2007 C 1.27321923828125 3.2712 1.2607192382812498 3.3457 1.2462192382812498 3.4187 C 1.24321923828125 3.4362 1.23871923828125 3.4627 1.2397192382812499 3.4797 C 1.2397192382812499 3.4846999999999997 1.25121923828125 3.4907 1.2557192382812499 3.4907 C 1.2617192382812499 3.4901999999999997 1.2647192382812498 3.4861999999999997 1.26521923828125 3.4807 C 1.2707192382812498 3.4332 1.2822192382812498 3.3651999999999997 1.2882192382812498 3.3327 C 1.2987192382812498 3.3322 1.30171923828125 3.3327 1.3112192382812498 3.3317 M 1.3102192382812499 3.2441999999999998 C 1.3112192382812498 3.2626999999999997 1.3107192382812498 3.2877 1.3112192382812498 3.3062 C 1.30971923828125 3.3066999999999998 1.3047192382812498 3.3072 1.3002192382812499 3.3072 C 1.29721923828125 3.3072 1.2942192382812499 3.3066999999999998 1.29321923828125 3.3066999999999998 C 1.29571923828125 3.2847 1.3062192382812499 3.2397 1.30971923828125 3.2226999999999997 M 1.3817307128906247 3.4492 C 1.3792307128906247 3.4487 1.3727307128906248 3.4567 1.3727307128906248 3.4592 C 1.3737307128906247 3.4727 1.3857307128906247 3.4827 1.3992307128906247 3.4827 C 1.4342307128906246 3.4787 1.4457307128906247 3.4202 1.4432307128906248 3.3912 C 1.4387307128906248 3.3432 1.4022307128906248 3.3137 1.3992307128906247 3.2857 C 1.3967307128906248 3.2592 1.4207307128906248 3.2187 1.4492307128906248 3.2182 C 1.4502307128906247 3.2187 1.4512307128906248 3.2192 1.4522307128906247 3.2192 C 1.4592307128906248 3.2192 1.4597307128906247 3.2056999999999998 1.4587307128906248 3.2022 C 1.4562307128906247 3.1936999999999998 1.4477307128906247 3.1927 1.4402307128906247 3.1927 C 1.3967307128906248 3.1961999999999997 1.3722307128906248 3.2572 1.3752307128906247 3.2887 C 1.3782307128906248 3.3266999999999998 1.4147307128906248 3.3537 1.4182307128906249 3.3942 C 1.4212307128906247 3.4242 1.4102307128906248 3.4552 1.3942307128906248 3.4567 C 1.3892307128906247 3.4572 1.3867307128906248 3.4537 1.3817307128906247 3.4492 M 1.5467204589843746 3.2167 C 1.5492204589843745 3.2167 1.5522204589843747 3.2167 1.5552204589843746 3.2167 C 1.5612204589843746 3.2167 1.5672204589843746 3.2167 1.5697204589843747 3.2167 C 1.5742204589843747 3.2172 1.5777204589843747 3.2132 1.5777204589843747 3.2087 C 1.5772204589843746 3.2027 1.5742204589843747 3.1976999999999998 1.5687204589843746 3.1947 C 1.5632204589843746 3.1921999999999997 1.5407204589843746 3.1907 1.5192204589843747 3.1907 C 1.5122204589843746 3.1907 1.5057204589843747 3.1907 1.4997204589843747 3.1912 C 1.4992204589843747 3.1912 1.4987204589843746 3.1912 1.4987204589843746 3.1912 C 1.4942204589843746 3.1912 1.4902204589843746 3.1892 1.4857204589843747 3.1892 C 1.4857204589843747 3.1892 1.4852204589843747 3.1892 1.4847204589843745 3.1892 C 1.4812204589843747 3.1892 1.4777204589843747 3.1927 1.4782204589843746 3.1967 C 1.4782204589843746 3.1992 1.4777204589843747 3.2027 1.4802204589843746 3.2047 C 1.4812204589843747 3.2121999999999997 1.4842204589843746 3.2187 1.4932204589843747 3.2182 C 1.5022204589843746 3.2177 1.4967204589843746 3.2172 1.5062204589843746 3.2167 C 1.5122204589843746 3.2167 1.5152204589843747 3.2167 1.5152204589843747 3.2226999999999997 C 1.5147204589843746 3.2477 1.5102204589843746 3.2982 1.5082204589843746 3.3312 C 1.5052204589843747 3.3731999999999998 1.5007204589843746 3.4207 1.5017204589843747 3.4637 C 1.5022204589843746 3.4752 1.5072204589843747 3.4846999999999997 1.5202204589843746 3.4842 C 1.5262204589843746 3.4842 1.5317204589843747 3.4807 1.5317204589843747 3.4741999999999997 C 1.5317204589843747 3.4682 1.5287204589843746 3.4632 1.5282204589843746 3.4572 C 1.5272204589843748 3.4172 1.5367204589843746 3.2812 1.5402204589843747 3.2466999999999997 C 1.5412204589843745 3.2367 1.5412204589843745 3.2262 1.5467204589843746 3.2167 M 1.6267294921874995 3.1856999999999998 C 1.6177294921874996 3.1856999999999998 1.6127294921874995 3.1887 1.6107294921874995 3.1982 C 1.6097294921874996 3.2077 1.6097294921874996 3.2157 1.6097294921874996 3.2252 C 1.6087294921874995 3.3011999999999997 1.6047294921874995 3.3827 1.5992294921874994 3.4596999999999998 C 1.5992294921874994 3.4612 1.5987294921874995 3.4632 1.5997294921874996 3.4642 C 1.5987294921874995 3.4701999999999997 1.6027294921874995 3.4812 1.6087294921874995 3.4821999999999997 C 1.6117294921874996 3.4827 1.6137294921874996 3.4827 1.6157294921874996 3.4827 C 1.6217294921874996 3.4827 1.6227294921874995 3.4802 1.6237294921874996 3.4732 C 1.6322294921874996 3.3842 1.6322294921874996 3.2817 1.6377294921874996 3.1976999999999998 C 1.6387294921874995 3.1887 1.6322294921874996 3.1896999999999998 1.6267294921874995 3.1856999999999998 M 1.7132387695312494 3.4612 C 1.7037387695312494 3.4492 1.6972387695312494 3.4276999999999997 1.6942387695312495 3.4057 C 1.6872387695312494 3.3457 1.6967387695312495 3.2727 1.7257387695312494 3.2217 C 1.7292387695312494 3.2152 1.7327387695312495 3.2077 1.7417387695312494 3.2072 C 1.7472387695312495 3.2072 1.7522387695312494 3.2142 1.7567387695312495 3.2142 C 1.7637387695312494 3.2132 1.7687387695312495 3.2081999999999997 1.7677387695312494 3.2022 C 1.7662387695312494 3.1917 1.7442387695312493 3.1827 1.7357387695312494 3.1832 C 1.6897387695312494 3.1867 1.6707387695312494 3.2972 1.6672387695312494 3.3322 C 1.6622387695312495 3.3742 1.6672387695312494 3.4112 1.6742387695312495 3.4381999999999997 C 1.6797387695312493 3.4612 1.6922387695312495 3.4857 1.7192387695312494 3.4857 C 1.7372387695312494 3.4846999999999997 1.7572387695312495 3.4587 1.7462387695312493 3.4476999999999998 C 1.7452387695312495 3.4467 1.7427387695312495 3.4427 1.7382387695312493 3.4412 C 1.7307387695312495 3.4476999999999998 1.7237387695312494 3.4632 1.7167387695312495 3.4632 C 1.7157387695312494 3.4632 1.7142387695312495 3.4627 1.7132387695312494 3.4612 M 1.9587099609374992 3.2872 C 1.9577099609374993 3.2441999999999998 1.9402099609374992 3.1927 1.8907099609374993 3.1877 C 1.8892099609374993 3.1877 1.8857099609374992 3.1742 1.8742099609374991 3.1742 C 1.8667099609374993 3.1742 1.8622099609374991 3.1787 1.8622099609374991 3.1867 C 1.8622099609374991 3.1942 1.8637099609374992 3.1947 1.8642099609374991 3.2052 C 1.8642099609374991 3.2207 1.8607099609374993 3.2352 1.8597099609374992 3.2506999999999997 C 1.8577099609374992 3.2762 1.8552099609374992 3.3017 1.8532099609374992 3.3277 C 1.8492099609374992 3.3787 1.8452099609374992 3.4187 1.8477099609374992 3.4642 C 1.8477099609374992 3.4732 1.8517099609374992 3.4802 1.8597099609374992 3.4852 C 1.8632099609374992 3.4877 1.8692099609374992 3.4886999999999997 1.8737099609374992 3.4886999999999997 C 1.8762099609374991 3.4886999999999997 1.8787099609374993 3.4882 1.8797099609374992 3.4877 C 1.9372099609374993 3.4497 1.9597099609374993 3.3651999999999997 1.9587099609374992 3.2872 M 1.8732099609374993 3.4642 C 1.8707099609374993 3.4297 1.8877099609374992 3.2462 1.8897099609374992 3.2137 C 1.9202099609374992 3.2132 1.9352099609374993 3.2517 1.9317099609374992 3.3066999999999998 C 1.9287099609374991 3.3587 1.9082099609374992 3.4377 1.8732099609374993 3.4642 M 2.013708007812499 3.2022 C 2.001208007812499 3.2092 2.002208007812499 3.2092 2.000708007812499 3.2222 C 1.996208007812499 3.2706999999999997 1.990708007812499 3.3202 1.9872080078124992 3.3687 C 1.984708007812499 3.3996999999999997 1.9837080078124991 3.4316999999999998 1.9837080078124991 3.4632 C 1.9837080078124991 3.4701999999999997 1.9857080078124991 3.4817 1.9952080078124992 3.4817 C 2.020708007812499 3.4812 2.037708007812499 3.4672 2.0587080078124993 3.4642 C 2.064708007812499 3.4637 2.068708007812499 3.4617 2.068708007812499 3.4556999999999998 C 2.068708007812499 3.4457 2.0572080078124992 3.4427 2.048708007812499 3.4427 C 2.037208007812499 3.4427 2.023708007812499 3.4501999999999997 2.011708007812499 3.4537 C 2.011208007812499 3.4187 2.0122080078124993 3.3876999999999997 2.016708007812499 3.3537 C 2.017708007812499 3.3467 2.0162080078124993 3.3396999999999997 2.022208007812499 3.3382 C 2.031708007812499 3.3357 2.0467080078124993 3.3352 2.056208007812499 3.3342 C 2.059208007812499 3.3337 2.063208007812499 3.3317 2.066208007812499 3.3317 C 2.070208007812499 3.3302 2.073708007812499 3.3247 2.073708007812499 3.3207 C 2.073708007812499 3.3152 2.069708007812499 3.3137 2.063708007812499 3.3137 L 2.021208007812499 3.3122 C 2.023708007812499 3.2912 2.024708007812499 3.2542 2.029208007812499 3.2306999999999997 C 2.030208007812499 3.2262 2.0322080078124993 3.2226999999999997 2.0322080078124993 3.2187 C 2.0322080078124993 3.2152 2.0282080078124993 3.2117 2.026208007812499 3.2096999999999998 L 2.0692080078124993 3.2072 C 2.0747080078124993 3.2072 2.0787080078124993 3.2047 2.078208007812499 3.1986999999999997 C 2.0772080078124993 3.1841999999999997 2.0612080078124992 3.1812 2.046208007812499 3.1812 C 2.037208007812499 3.1812 2.028708007812499 3.1822 2.023208007812499 3.1827 C 2.017208007812499 3.1832 2.0147080078124993 3.1862 2.012708007812499 3.1912 M 2.143218994140624 3.3916999999999997 C 2.140718994140624 3.3531999999999997 2.136718994140624 3.2877 2.133718994140624 3.2517 C 2.132218994140624 3.2306999999999997 2.133218994140624 3.2117 2.131218994140624 3.1902 C 2.130718994140624 3.1807 2.126718994140624 3.1761999999999997 2.117218994140624 3.1761999999999997 C 2.106718994140624 3.1772 2.100218994140624 3.1816999999999998 2.100718994140624 3.1921999999999997 C 2.101718994140624 3.2007 2.104218994140624 3.2072 2.105218994140624 3.2157 C 2.108218994140624 3.2597 2.112718994140624 3.3362 2.118218994140624 3.3817 C 2.119218994140624 3.3937 2.123718994140624 3.4577 2.121718994140624 3.4647 C 2.120218994140624 3.4701999999999997 2.120218994140624 3.4732 2.122718994140624 3.4777 C 2.127718994140624 3.4817 2.130218994140624 3.4852 2.136718994140624 3.4872 C 2.138218994140624 3.4877 2.140218994140624 3.4877 2.141718994140624 3.4877 C 2.150218994140624 3.4877 2.156218994140624 3.4821999999999997 2.157218994140624 3.4701999999999997 C 2.159218994140624 3.4596999999999998 2.163718994140624 3.4177 2.166718994140624 3.4032 C 2.176718994140624 3.3472 2.195718994140624 3.2367 2.210718994140624 3.1907 C 2.212718994140624 3.1882 2.212718994140624 3.1837 2.208218994140624 3.1827 C 2.203718994140624 3.1782 2.199718994140624 3.1761999999999997 2.196218994140624 3.1761999999999997 C 2.190218994140624 3.1761999999999997 2.185718994140624 3.1822 2.183718994140624 3.1902 C 2.181718994140624 3.1927 2.181718994140624 3.1947 2.182218994140624 3.1972 C 2.178218994140624 3.2062 2.177718994140624 3.2146999999999997 2.175218994140624 3.2232 C 2.162218994140624 3.2742 2.151718994140624 3.3427 2.143218994140624 3.3916999999999997 M 2.275721435546874 3.2152 C 2.280721435546874 3.2152 2.286221435546874 3.2157 2.2907214355468737 3.2157 C 2.303721435546874 3.2157 2.335721435546874 3.2121999999999997 2.335721435546874 3.1986999999999997 C 2.335721435546874 3.1927 2.332721435546874 3.1867 2.327221435546874 3.1867 C 2.315221435546874 3.1867 2.303721435546874 3.1882 2.2922214355468737 3.1882 C 2.280721435546874 3.1882 2.2697214355468738 3.1852 2.2602214355468737 3.1852 C 2.2562214355468737 3.1852 2.2497214355468738 3.1892 2.249221435546874 3.1936999999999998 C 2.239721435546874 3.2717 2.227721435546874 3.3491999999999997 2.227721435546874 3.4287 C 2.227721435546874 3.4467 2.230221435546874 3.4857 2.255221435546874 3.4857 C 2.266221435546874 3.4857 2.301721435546874 3.4682 2.314221435546874 3.4637 C 2.319721435546874 3.4637 2.323721435546874 3.4552 2.323721435546874 3.4507 C 2.323721435546874 3.4427 2.3162214355468738 3.4421999999999997 2.309721435546874 3.4421999999999997 C 2.301221435546874 3.4421999999999997 2.267221435546874 3.4552 2.258721435546874 3.4552 C 2.254721435546874 3.4516999999999998 2.255721435546874 3.4167 2.255721435546874 3.4102 C 2.255721435546874 3.3931999999999998 2.257221435546874 3.3712 2.258721435546874 3.3542 C 2.259221435546874 3.3502 2.263721435546874 3.3491999999999997 2.2682214355468737 3.3476999999999997 C 2.283721435546874 3.3422 2.299221435546874 3.3407 2.3147214355468737 3.3346999999999998 C 2.318221435546874 3.3331999999999997 2.319721435546874 3.3287 2.319721435546874 3.3257 C 2.319721435546874 3.3167 2.318221435546874 3.3162 2.309721435546874 3.3162 C 2.292721435546874 3.3167 2.277221435546874 3.3202 2.2617214355468738 3.3202 C 2.265221435546874 3.2862 2.2697214355468738 3.2492 2.275721435546874 3.2152 M 2.381730712890624 3.4512 C 2.381730712890624 3.3682 2.389730712890624 3.2777 2.397730712890624 3.2041999999999997 C 2.3982307128906237 3.1976999999999998 2.3927307128906237 3.1902 2.385730712890624 3.1902 C 2.3757307128906238 3.1902 2.369730712890624 3.1902 2.369730712890624 3.2022 C 2.369730712890624 3.2157 2.369230712890624 3.2287 2.368230712890624 3.2412 C 2.364230712890624 3.3066999999999998 2.3582307128906237 3.3731999999999998 2.3582307128906237 3.4381999999999997 C 2.3582307128906237 3.4472 2.3527307128906236 3.4617 2.353730712890624 3.4667 C 2.3582307128906237 3.4752 2.364230712890624 3.4807 2.374730712890624 3.4807 C 2.376230712890624 3.4807 2.3782307128906237 3.4807 2.3792307128906236 3.4802 C 2.3927307128906237 3.4762 2.439730712890624 3.4682 2.439730712890624 3.4501999999999997 C 2.439730712890624 3.4461999999999997 2.4367307128906237 3.4417 2.433230712890624 3.4421999999999997 C 2.4217307128906236 3.4452 2.3992307128906236 3.4512 2.381730712890624 3.4512 M 2.562237060546874 3.3522 C 2.567737060546874 3.2851999999999997 2.566237060546874 3.2401999999999997 2.5522370605468736 3.2087 C 2.550237060546874 3.2032 2.5472370605468737 3.1992 2.5452370605468735 3.1982 C 2.5377370605468736 3.1932 2.531737060546874 3.1921999999999997 2.5247370605468737 3.1907 C 2.522237060546874 3.1907 2.5207370605468737 3.1912 2.5187370605468735 3.1912 C 2.517237060546874 3.1912 2.515737060546874 3.1907 2.513237060546874 3.1892 C 2.5112370605468737 3.1877 2.509237060546874 3.1867 2.5072370605468737 3.1867 C 2.4982370605468738 3.1867 2.491737060546874 3.2037 2.4897370605468736 3.2121999999999997 C 2.4807370605468737 3.2492 2.4742370605468738 3.2842 2.4707370605468735 3.3217 C 2.4672370605468736 3.3617 2.4642370605468735 3.3971999999999998 2.469237060546874 3.4392 C 2.4702370605468738 3.4476999999999998 2.4707370605468735 3.4567 2.4747370605468735 3.4647 C 2.4802370605468735 3.4757 2.4912370605468737 3.4857 2.5042370605468736 3.4857 C 2.5467370605468735 3.4857 2.5592370605468737 3.3817 2.562237060546874 3.3522 M 2.5032370605468737 3.4607 C 2.481237060546874 3.4327 2.5047370605468737 3.2292 2.522237060546874 3.2056999999999998 C 2.543737060546874 3.2252 2.539737060546874 3.3211999999999997 2.5367370605468738 3.3487 C 2.5322370605468736 3.3827 2.5232370605468737 3.4276999999999997 2.5072370605468737 3.4587 C 2.506237060546874 3.4602 2.505237060546874 3.4621999999999997 2.5047370605468737 3.4621999999999997 C 2.5042370605468736 3.4621999999999997 2.503737060546874 3.4617 2.5032370605468737 3.4607 M 2.6167368164062488 3.1856999999999998 C 2.6122368164062486 3.1856999999999998 2.6042368164062486 3.1872 2.6037368164062484 3.1921999999999997 C 2.6027368164062485 3.1957 2.6072368164062487 3.2012 2.6072368164062487 3.2047 C 2.6082368164062486 3.2257 2.6037368164062484 3.2777 2.5997368164062484 3.3207 C 2.5952368164062487 3.3676999999999997 2.5912368164062487 3.4276999999999997 2.5912368164062487 3.4747 C 2.5912368164062487 3.4867 2.5967368164062488 3.4947 2.6097368164062487 3.4952 C 2.6187368164062486 3.4952 2.6187368164062486 3.4877 2.6187368164062486 3.4807 C 2.6192368164062487 3.4737 2.6167368164062488 3.4672 2.6167368164062488 3.4596999999999998 C 2.6177368164062487 3.4377 2.6192368164062487 3.3952 2.6217368164062487 3.3731999999999998 C 2.6642368164062487 3.3556999999999997 2.6902368164062485 3.2922 2.6907368164062486 3.2577 C 2.6917368164062485 3.2081999999999997 2.6547368164062486 3.1867 2.6167368164062488 3.1856999999999998 M 2.6357368164062485 3.2102 C 2.6552368164062488 3.2112 2.6667368164062486 3.2306999999999997 2.6662368164062484 3.2577 C 2.6662368164062484 3.2797 2.6507368164062486 3.3237 2.6232368164062487 3.3447 C 2.6267368164062486 3.3017 2.632736816406249 3.2521999999999998 2.6357368164062485 3.2102 M 2.7417365722656233 3.2022 C 2.7292365722656236 3.2092 2.7302365722656234 3.2092 2.7287365722656234 3.2222 C 2.7242365722656237 3.2706999999999997 2.7187365722656236 3.3202 2.7152365722656233 3.3687 C 2.7127365722656234 3.3996999999999997 2.7117365722656235 3.4316999999999998 2.7117365722656235 3.4632 C 2.7117365722656235 3.4701999999999997 2.7137365722656233 3.4817 2.7232365722656233 3.4817 C 2.7487365722656234 3.4812 2.7657365722656233 3.4672 2.7867365722656237 3.4642 C 2.7927365722656234 3.4637 2.7967365722656234 3.4617 2.7967365722656234 3.4556999999999998 C 2.7967365722656234 3.4457 2.7852365722656236 3.4427 2.7767365722656234 3.4427 C 2.7652365722656236 3.4427 2.7517365722656235 3.4501999999999997 2.7397365722656235 3.4537 C 2.7392365722656233 3.4187 2.7402365722656237 3.3876999999999997 2.7447365722656234 3.3537 C 2.7457365722656233 3.3467 2.7442365722656237 3.3396999999999997 2.7502365722656235 3.3382 C 2.7597365722656235 3.3357 2.7747365722656236 3.3352 2.7842365722656233 3.3342 C 2.7872365722656234 3.3337 2.7912365722656234 3.3317 2.7942365722656235 3.3317 C 2.7982365722656235 3.3302 2.8017365722656233 3.3247 2.8017365722656233 3.3207 C 2.8017365722656233 3.3152 2.7977365722656233 3.3137 2.7917365722656236 3.3137 L 2.7492365722656236 3.3122 C 2.7517365722656235 3.2912 2.7527365722656234 3.2542 2.7572365722656236 3.2306999999999997 C 2.7582365722656235 3.2262 2.7602365722656237 3.2226999999999997 2.7602365722656237 3.2187 C 2.7602365722656237 3.2152 2.7562365722656237 3.2117 2.7542365722656235 3.2096999999999998 L 2.7972365722656236 3.2072 C 2.8027365722656237 3.2072 2.8067365722656237 3.2047 2.8062365722656235 3.1986999999999997 C 2.8052365722656236 3.1841999999999997 2.7892365722656236 3.1812 2.7742365722656235 3.1812 C 2.7652365722656236 3.1812 2.7567365722656234 3.1822 2.7512365722656233 3.1827 C 2.7452365722656236 3.1832 2.7427365722656236 3.1862 2.7407365722656234 3.1912 M 2.8282475585937483 3.1986999999999997 C 2.8282475585937483 3.2022 2.8352475585937484 3.2037 2.835747558593748 3.2187 C 2.8367475585937485 3.2332 2.831747558593748 3.2786999999999997 2.8307475585937483 3.2937 C 2.8287475585937485 3.3342 2.8272475585937484 3.3747 2.8257475585937484 3.4156999999999997 C 2.8247475585937485 3.4352 2.823747558593748 3.4552 2.8242475585937483 3.4752 C 2.8247475585937485 3.4886999999999997 2.8307475585937483 3.4917 2.8432475585937484 3.4917 C 2.8492475585937482 3.4917 2.8502475585937486 3.4807 2.8497475585937484 3.4661999999999997 C 2.8492475585937482 3.4432 2.8512475585937485 3.4127 2.851747558593748 3.4057 C 2.8522475585937483 3.3922 2.8537475585937484 3.3827 2.8537475585937484 3.3647 C 2.8617475585937484 3.3817 2.8867475585937483 3.4442 2.9072475585937485 3.4472 C 2.9082475585937484 3.4472 2.9092475585937483 3.4472 2.910247558593748 3.4472 C 2.9147475585937483 3.4472 2.9197475585937482 3.4452 2.9177475585937485 3.4407 C 2.914247558593748 3.4341999999999997 2.8967475585937486 3.4032 2.883747558593748 3.3731999999999998 C 2.8827475585937483 3.3707 2.8727475585937485 3.3437 2.8702475585937486 3.3411999999999997 C 2.8867475585937483 3.3222 2.9092475585937483 3.2931999999999997 2.9082475585937484 3.2537 C 2.9072475585937485 3.2092 2.8812475585937483 3.1986999999999997 2.8707475585937483 3.1902 C 2.8667475585937483 3.1832 2.8612475585937482 3.1787 2.8527475585937485 3.1787 C 2.8407475585937485 3.1792 2.835747558593748 3.1902 2.8282475585937483 3.1986999999999997 M 2.855747558593748 3.3162 C 2.8577475585937484 3.2946999999999997 2.8622475585937486 3.2417 2.863747558593748 3.2201999999999997 C 2.8727475585937485 3.2217 2.883747558593748 3.2352 2.8832475585937485 3.2546999999999997 C 2.8822475585937486 3.2822 2.867747558593748 3.3077 2.855747558593748 3.3162" fill="#ffffff" fill-rule="nonzero"></path></g><g clip-path="url(#SvgjsClipPath1001)"><g clip-path="url(#a63c0fff9-c583-476a-a165-64210941b34b90741084-c87b-41d6-9091-ed4498eebddd)"><path d=" M 2.600544502593996 -0.785363991838941 L 0.7204445846452466 -0.785363991838941 L 0.7204445846452466 -1.9250897141072065 C 0.7204445846452466 -1.970775909044077 0.7574802938721121 -2.0078116182709422 0.8031680272200991 -2.0078116182709422 L 2.51782259843026 -2.0078116182709422 C 2.563507254956013 -2.0078116182709422 2.600544502593996 -1.970775909044077 2.600544502593996 -1.9250897141072065 Z" fill="#5a5758" transform="matrix(1,0,0,1,0,0)" fill-rule="nonzero"></path></g><g clip-path="url(#a63c0fff9-c583-476a-a165-64210941b34b90741084-c87b-41d6-9091-ed4498eebddd)"><path d=" M 2.600544502593996 -0.785363991838941 L 0.7204445846452466 -0.785363991838941 L 0.7204445846452466 -1.9250897141072065 C 0.7204445846452466 -1.970775909044077 0.7574802938721121 -2.0078116182709422 0.8031680272200991 -2.0078116182709422 L 2.51782259843026 -2.0078116182709422 C 2.563507254956013 -2.0078116182709422 2.600544502593996 -1.970775909044077 2.600544502593996 -1.9250897141072065 Z" fill="none" transform="matrix(1,0,0,1,0,0)" fill-rule="nonzero" stroke-dasharray="none" stroke-miterlimit="10" stroke-linejoin="miter" stroke-linecap="butt" stroke-width="0.027574480858284168" stroke="#231f20"></path></g><g clip-path="url(#a63c0fff9-c583-476a-a165-64210941b34b90741084-c87b-41d6-9091-ed4498eebddd)"><path d=" M 0.7204445846452465 -0.785363991838941 L 2.600544502593996 -0.785363991838941 L 2.600544502593996 -0.6781321217616711 C 2.600544502593996 -0.6324459268248008 2.5635103317782466 -0.5954102175979357 2.51782259843026 -0.5954102175979357 L 0.8031695656312159 -0.5954102175979357 C 0.7574802938721118 -0.5954102175979357 0.7204445846452465 -0.6324459268248008 0.7204445846452465 -0.6781321217616711 Z" fill="#ffffff" transform="matrix(1,0,0,1,0,0)" fill-rule="nonzero"></path></g><g clip-path="url(#a63c0fff9-c583-476a-a165-64210941b34b90741084-c87b-41d6-9091-ed4498eebddd)"><path d=" M 0.7204445846452465 -0.785363991838941 L 2.600544502593996 -0.785363991838941 L 2.600544502593996 -0.6781321217616711 C 2.600544502593996 -0.6324459268248008 2.5635103317782466 -0.5954102175979357 2.51782259843026 -0.5954102175979357 L 0.8031695656312159 -0.5954102175979357 C 0.7574802938721118 -0.5954102175979357 0.7204445846452465 -0.6324459268248008 0.7204445846452465 -0.6781321217616711 Z" fill="none" transform="matrix(1,0,0,1,0,0)" fill-rule="nonzero" stroke-dasharray="none" stroke-miterlimit="10" stroke-linejoin="miter" stroke-linecap="butt" stroke-width="0.027574480858284168" stroke="#231f20"></path></g><g clip-path="url(#SvgjsClipPath100090741084-c87b-41d6-9091-ed4498eebddd)"><path d=" M 1.5603911694479735 -0.6903889748964338 L 1.7606030690160843 -0.6903889748964338" fill="none" transform="matrix(1,0,0,1,0,0)" fill-rule="nonzero" stroke-dasharray="none" stroke-miterlimit="10" stroke-linejoin="miter" stroke-linecap="butt" stroke-width="0.027574480858284168" stroke="#231f20"></path></g><g clip-path="url(#SvgjsClipPath100090741084-c87b-41d6-9091-ed4498eebddd)"><path d=" M 0.8171721836167158 -0.8832592448480938 L 0.8760379465915756 -0.8832592448480938 L 0.8760379465915756 -1.846252298013498 L 0.8171721836167158 -1.846252298013498 Z" fill="#d3d2d2" transform="matrix(1,0,0,1,0,0)" fill-rule="nonzero" stroke-dasharray="none" stroke-miterlimit="10" stroke-linejoin="miter" stroke-linecap="butt" stroke-width="0.027574480858284168" stroke="#231f20"></path></g><g clip-path="url(#SvgjsClipPath100090741084-c87b-41d6-9091-ed4498eebddd)"><path d=" M 0.8171721836167158 -1.8490614367128522 L 2.5038138268002923 -1.8490614367128522 L 2.5038138268002923 -1.907928738098829 L 0.8171721836167158 -1.907928738098829 Z" fill="#d3d2d2" transform="matrix(1,0,0,1,0,0)" fill-rule="nonzero" stroke-dasharray="none" stroke-miterlimit="10" stroke-linejoin="miter" stroke-linecap="butt" stroke-width="0.027546789458181002" stroke="#231f20"></path></g><g clip-path="url(#SvgjsClipPath100090741084-c87b-41d6-9091-ed4498eebddd)"><path d=" M 0.8760391959268289 -1.8360531360166599 L 0.8760391959268289 -1.9055631655089527" fill="none" transform="matrix(1,0,0,1,0,0)" fill-rule="nonzero" stroke-dasharray="none" stroke-miterlimit="10" stroke-linejoin="miter" stroke-linecap="butt" stroke-width="0.027574480858284168" stroke="#231f20"></path></g><g clip-path="url(#SvgjsClipPath100090741084-c87b-41d6-9091-ed4498eebddd)"><path d=" M 0.8634598973002717 -1.861639486004156 L 0.8297517713191367 -1.861639486004156 L 0.8297517713191367 -1.895349150396408 L 0.8634598973002717 -1.895349150396408 Z" fill="#f9b25f" transform="matrix(1,0,0,1,0,0)" fill-rule="nonzero"></path></g><g clip-path="url(#SvgjsClipPath100090741084-c87b-41d6-9091-ed4498eebddd)"><path d=" M 2.5038138268002923 -0.8832592448480938 L 0.8760379465915756 -0.8832592448480938 L 0.8760379465915756 -1.846252298013498 L 2.5038138268002923 -1.846252298013498 Z" fill="#ffffff" transform="matrix(1,0,0,1,0,0)" fill-rule="nonzero" stroke-dasharray="none" stroke-miterlimit="10" stroke-linejoin="miter" stroke-linecap="butt" stroke-width="0.027574480858284168" stroke="#231f20"></path></g><g clip-path="url(#SvgjsClipPath100090741084-c87b-41d6-9091-ed4498eebddd)"><path d=" M 0.8760391959268289 -1.7035933000902594 L 2.5038150761355453 -1.7035933000902594" fill="none" transform="matrix(1,0,0,1,0,0)" fill-rule="nonzero" stroke-dasharray="none" stroke-miterlimit="10" stroke-linejoin="miter" stroke-linecap="butt" stroke-width="0.027574480858284168" stroke="#231f20"></path></g><g clip-path="url(#SvgjsClipPath100090741084-c87b-41d6-9091-ed4498eebddd)"><path d=" M 1.1698053021448496 -1.843449065950705 L 1.1698053021448496 -1.7035936497296742" fill="none" transform="matrix(1,0,0,1,0,0)" fill-rule="nonzero" stroke-dasharray="none" stroke-miterlimit="10" stroke-linejoin="miter" stroke-linecap="butt" stroke-width="0.027574480858284168" stroke="#231f20"></path></g><g clip-path="url(#SvgjsClipPath100090741084-c87b-41d6-9091-ed4498eebddd)"><path d=" M 1.2238682807703736 -1.7735211830204822 L 2.4502357787280893 -1.7735211830204822" fill="none" transform="matrix(1,0,0,1,0,0)" fill-rule="nonzero" stroke-dasharray="none" stroke-miterlimit="10" stroke-linejoin="miter" stroke-linecap="butt" stroke-width="0.027574480858284168" stroke="#231f20"></path></g><g clip-path="url(#SvgjsClipPath100090741084-c87b-41d6-9091-ed4498eebddd)"><path d=" M 0.9598905829261906 -1.7568567664248997 L 0.9261824569450554 -1.7568567664248997 L 0.9261824569450554 -1.7905664308171518 L 0.9598905829261906 -1.7905664308171518 Z M 1.0381234034509799 -1.7568567664248997 L 1.004415277469845 -1.7568567664248997 L 1.004415277469845 -1.7905664308171518 L 1.0381234034509799 -1.7905664308171518 Z M 1.1163562239757692 -1.7568567664248997 L 1.082648097994634 -1.7568567664248997 L 1.082648097994634 -1.7905664308171518 L 1.1163562239757692 -1.7905664308171518 Z" fill="#231f20" transform="matrix(1,0,0,1,0,0)" fill-rule="nonzero"></path></g><g clip-path="url(#SvgjsClipPath100090741084-c87b-41d6-9091-ed4498eebddd)"><path d=" M 2.412862961572566 -1.2996779043661264 L 0.9669857349970679 -1.2996779043661264 L 0.9669857349970679 -1.5317579902196283 L 2.412862961572566 -1.5317579902196283 Z" fill="#75bebc" transform="matrix(1,0,0,1,0,0)" fill-rule="nonzero"></path></g><g clip-path="url(#SvgjsClipPath100090741084-c87b-41d6-9091-ed4498eebddd)"><path d=" M 1.293534248553166 -1.2240393570688302 L 2.412866793056568 -1.2240393570688302" fill="none" transform="matrix(1,0,0,1,0,0)" fill-rule="nonzero" stroke-dasharray="none" stroke-miterlimit="10" stroke-linejoin="miter" stroke-linecap="butt" stroke-width="0.027336027135173586" stroke="#231f20"></path></g><g clip-path="url(#SvgjsClipPath100090741084-c87b-41d6-9091-ed4498eebddd)"><path d=" M 1.293534248553166 -1.1495954570150735 L 2.412866793056568 -1.1495954570150735" fill="none" transform="matrix(1,0,0,1,0,0)" fill-rule="nonzero" stroke-dasharray="none" stroke-miterlimit="10" stroke-linejoin="miter" stroke-linecap="butt" stroke-width="0.027336027135173586" stroke="#231f20"></path></g><g clip-path="url(#SvgjsClipPath100090741084-c87b-41d6-9091-ed4498eebddd)"><path d=" M 1.293534248553166 -1.075150403150095 L 2.412866793056568 -1.075150403150095" fill="none" transform="matrix(1,0,0,1,0,0)" fill-rule="nonzero" stroke-dasharray="none" stroke-miterlimit="10" stroke-linejoin="miter" stroke-linecap="butt" stroke-width="0.027336027135173586" stroke="#231f20"></path></g><g clip-path="url(#SvgjsClipPath100090741084-c87b-41d6-9091-ed4498eebddd)"><path d=" M 1.293534248553166 -1.0007076569075606 L 2.412866793056568 -1.0007076569075606" fill="none" transform="matrix(1,0,0,1,0,0)" fill-rule="nonzero" stroke-dasharray="none" stroke-miterlimit="10" stroke-linejoin="miter" stroke-linecap="butt" stroke-width="0.027336027135173586" stroke="#231f20"></path></g><g clip-path="url(#SvgjsClipPath100090741084-c87b-41d6-9091-ed4498eebddd)"><path d=" M 1.2381260791072002 -0.9840220961790407 L 0.9669872734081848 -0.9840220961790407 L 0.9669872734081848 -1.2380383861475996 L 1.2381260791072002 -1.2380383861475996 Z" fill="#f9b25f" transform="matrix(1,0,0,1,0,0)" fill-rule="nonzero"></path></g><g clip-path="url(#SvgjsClipPath100090741084-c87b-41d6-9091-ed4498eebddd)"><path d=" M 1.4719645688672531 -1.5894776369124406 L 1.4382564428861182 -1.5894776369124406 L 1.4382564428861182 -1.6231857628935757 L 1.4719645688672531 -1.6231857628935757 Z M 1.5502358496699638 -1.5894776369124406 L 1.5165277236888288 -1.5894776369124406 L 1.5165277236888288 -1.6231857628935757 L 1.550235849669964 -1.6231857628935757 Z M 1.6285071304726741 -1.5894776369124406 L 1.5947990044915392 -1.5894776369124406 L 1.5947990044915392 -1.6231857628935757 L 1.6285071304726744 -1.6231857628935757 Z M 1.7067799496865015 -1.5894776369124406 L 1.6730718237053663 -1.5894776369124406 L 1.6730718237053663 -1.6231857628935757 L 1.7067799496865015 -1.6231857628935757 Z M 1.785051230489212 -1.5894776369124406 L 1.7513431045080772 -1.5894776369124406 L 1.7513431045080772 -1.6231857628935757 L 1.785051230489212 -1.6231857628935757 Z M 1.8633225112919225 -1.5894776369124406 L 1.8296143853107874 -1.5894776369124406 L 1.8296143853107874 -1.6231857628935757 L 1.8633225112919225 -1.6231857628935757 Z M 1.9415937920946327 -1.5894776369124406 L 1.9078856661134977 -1.5894776369124406 L 1.9078856661134977 -1.6231857628935757 L 1.9415937920946327 -1.6231857628935757 Z" fill="#231f20" transform="matrix(1,0,0,1,0,0)" fill-rule="nonzero"></path></g><g clip-path="url(#SvgjsClipPath100090741084-c87b-41d6-9091-ed4498eebddd)"><path d=" M 1.9852523611795048 -0.26452260094299285 L 1.3357321108263867 -0.26452260094299285 L 1.3357321108263867 -0.3441799901619782 L 1.9852523611795048 -0.3441799901619782 Z" fill="#ffffff" transform="matrix(1,0,0,1,0,0)" fill-rule="nonzero"></path></g><g clip-path="url(#b63c0fff9-c583-476a-a165-64210941b34b90741084-c87b-41d6-9091-ed4498eebddd)"><path d=" M 1.9852523611795048 -0.26452260094299285 L 1.3357321108263867 -0.26452260094299285 L 1.3357321108263867 -0.3441799901619782 L 1.9852523611795048 -0.3441799901619782 Z" fill="none" transform="matrix(1,0,0,1,0,0)" fill-rule="nonzero" stroke-dasharray="none" stroke-miterlimit="10" stroke-linejoin="miter" stroke-linecap="butt" stroke-width="0.027574480858284168" stroke="#231f20"></path></g><g clip-path="url(#SvgjsClipPath100090741084-c87b-41d6-9091-ed4498eebddd)"><path d=" M 1.8181641345907162 -0.5954118503331198 L 1.8679148116982842 -0.3441816228971626 L 1.4530791772194824 -0.3441816228971626 L 1.5028298543270509 -0.5954118503331198 Z" fill="#ffffff" transform="matrix(1,0,0,1,0,0)" fill-rule="nonzero"></path></g><g clip-path="url(#SvgjsClipPath100090741084-c87b-41d6-9091-ed4498eebddd)"><path d=" M 1.8181641345907162 -0.5954118503331198 L 1.8679148116982842 -0.3441816228971626 L 1.4530791772194824 -0.3441816228971626 L 1.5028298543270509 -0.5954118503331198 Z" fill="none" transform="matrix(1,0,0,1,0,0)" fill-rule="nonzero" stroke-dasharray="none" stroke-miterlimit="10" stroke-linejoin="miter" stroke-linecap="butt" stroke-width="0.027574480858284168" stroke="#231f20"></path></g><g clip-path="url(#c63c0fff9-c583-476a-a165-64210941b34b90741084-c87b-41d6-9091-ed4498eebddd)"><path d=" M 0.22246398294557745 -0.26378724042914237 L 3.098523565882547 -0.26378724042914237" fill="none" transform="matrix(1,0,0,1,0,0)" fill-rule="nonzero" stroke-dasharray="none" stroke-miterlimit="10" stroke-linejoin="miter" stroke-linecap="butt" stroke-width="0.027574480858284168" stroke="#231f20"></path></g></g></g><defs><clipPath id="SvgjsClipPath1001"><path d=" M 0.22246398294557745 -2.0215988587000844 h 2.87605958293697 v 1.7715988587000842 h -2.87605958293697 Z"></path></clipPath><clipPath id="a63c0fff9-c583-476a-a165-64210941b34b90741084-c87b-41d6-9091-ed4498eebddd"><path d=" M 0.22246398294557745 -0.2500000000000002 L 3.098523565882547 -0.2500000000000002 L 3.098523565882547 -2.0215988587000844 L 0.22246398294557745 -2.0215988587000844 Z"></path></clipPath><clipPath id="SvgjsClipPath100090741084-c87b-41d6-9091-ed4498eebddd"><path d=" M 0.22246398294557745 -2.0215988587000844 L 3.098523565882547 -2.0215988587000844 L 3.098523565882547 -0.2500000000000002 L 0.22246398294557745 -0.2500000000000002 Z"></path></clipPath><clipPath id="b63c0fff9-c583-476a-a165-64210941b34b90741084-c87b-41d6-9091-ed4498eebddd"><path d=" M 0.22246398294557745 -0.2500000000000002 L 3.098523565882547 -0.2500000000000002 L 3.098523565882547 -2.0215988587000844 L 0.22246398294557745 -2.0215988587000844 Z"></path></clipPath><clipPath id="c63c0fff9-c583-476a-a165-64210941b34b90741084-c87b-41d6-9091-ed4498eebddd"><path d=" M 0.22246398294557745 -0.2500000000000002 L 3.098523565882547 -0.2500000000000002 L 3.098523565882547 -2.0215988587000844 L 0.22246398294557745 -2.0215988587000844 Z"></path></clipPath></defs></svg>